G04 #@! TF.GenerationSoftware,KiCad,Pcbnew,7.0.10*
G04 #@! TF.CreationDate,2024-01-13T20:14:55+01:00*
G04 #@! TF.ProjectId,drv8323shield,64727638-3332-4337-9368-69656c642e6b,A*
G04 #@! TF.SameCoordinates,Original*
G04 #@! TF.FileFunction,Paste,Top*
G04 #@! TF.FilePolarity,Positive*
%FSLAX46Y46*%
G04 Gerber Fmt 4.6, Leading zero omitted, Abs format (unit mm)*
G04 Created by KiCad (PCBNEW 7.0.10) date 2024-01-13 20:14:55*
%MOMM*%
%LPD*%
G01*
G04 APERTURE LIST*
G04 Aperture macros list*
%AMRoundRect*
0 Rectangle with rounded corners*
0 $1 Rounding radius*
0 $2 $3 $4 $5 $6 $7 $8 $9 X,Y pos of 4 corners*
0 Add a 4 corners polygon primitive as box body*
4,1,4,$2,$3,$4,$5,$6,$7,$8,$9,$2,$3,0*
0 Add four circle primitives for the rounded corners*
1,1,$1+$1,$2,$3*
1,1,$1+$1,$4,$5*
1,1,$1+$1,$6,$7*
1,1,$1+$1,$8,$9*
0 Add four rect primitives between the rounded corners*
20,1,$1+$1,$2,$3,$4,$5,0*
20,1,$1+$1,$4,$5,$6,$7,0*
20,1,$1+$1,$6,$7,$8,$9,0*
20,1,$1+$1,$8,$9,$2,$3,0*%
%AMFreePoly0*
4,1,21,1.372500,0.787500,0.862500,0.787500,0.862500,0.532500,1.372500,0.532500,1.372500,0.127500,0.862500,0.127500,0.862500,-0.127500,1.372500,-0.127500,1.372500,-0.532500,0.862500,-0.532500,0.862500,-0.787500,1.372500,-0.787500,1.372500,-1.195000,0.612500,-1.195000,0.612500,-1.117500,-0.862500,-1.117500,-0.862500,1.117500,0.612500,1.117500,0.612500,1.195000,1.372500,1.195000,
1.372500,0.787500,1.372500,0.787500,$1*%
G04 Aperture macros list end*
%ADD10R,0.990000X0.405000*%
%ADD11FreePoly0,180.000000*%
%ADD12RoundRect,0.150000X-0.150000X0.512500X-0.150000X-0.512500X0.150000X-0.512500X0.150000X0.512500X0*%
%ADD13RoundRect,0.150000X0.200000X-0.150000X0.200000X0.150000X-0.200000X0.150000X-0.200000X-0.150000X0*%
%ADD14RoundRect,0.150000X-0.512500X-0.150000X0.512500X-0.150000X0.512500X0.150000X-0.512500X0.150000X0*%
%ADD15RoundRect,0.140000X-0.170000X0.140000X-0.170000X-0.140000X0.170000X-0.140000X0.170000X0.140000X0*%
%ADD16RoundRect,0.250000X-0.450000X0.350000X-0.450000X-0.350000X0.450000X-0.350000X0.450000X0.350000X0*%
%ADD17RoundRect,0.135000X-0.135000X-0.185000X0.135000X-0.185000X0.135000X0.185000X-0.135000X0.185000X0*%
%ADD18RoundRect,0.135000X0.135000X0.185000X-0.135000X0.185000X-0.135000X-0.185000X0.135000X-0.185000X0*%
%ADD19RoundRect,0.140000X0.170000X-0.140000X0.170000X0.140000X-0.170000X0.140000X-0.170000X-0.140000X0*%
%ADD20RoundRect,0.140000X-0.140000X-0.170000X0.140000X-0.170000X0.140000X0.170000X-0.140000X0.170000X0*%
%ADD21RoundRect,0.100000X0.637500X0.100000X-0.637500X0.100000X-0.637500X-0.100000X0.637500X-0.100000X0*%
%ADD22RoundRect,0.135000X-0.185000X0.135000X-0.185000X-0.135000X0.185000X-0.135000X0.185000X0.135000X0*%
%ADD23RoundRect,0.135000X0.185000X-0.135000X0.185000X0.135000X-0.185000X0.135000X-0.185000X-0.135000X0*%
%ADD24RoundRect,0.140000X0.140000X0.170000X-0.140000X0.170000X-0.140000X-0.170000X0.140000X-0.170000X0*%
%ADD25RoundRect,0.150000X0.587500X0.150000X-0.587500X0.150000X-0.587500X-0.150000X0.587500X-0.150000X0*%
%ADD26RoundRect,0.150000X-0.150000X-0.200000X0.150000X-0.200000X0.150000X0.200000X-0.150000X0.200000X0*%
%ADD27RoundRect,0.250000X-0.325000X-0.650000X0.325000X-0.650000X0.325000X0.650000X-0.325000X0.650000X0*%
%ADD28RoundRect,0.250000X-0.650000X0.325000X-0.650000X-0.325000X0.650000X-0.325000X0.650000X0.325000X0*%
%ADD29RoundRect,0.150000X0.150000X-0.587500X0.150000X0.587500X-0.150000X0.587500X-0.150000X-0.587500X0*%
%ADD30RoundRect,0.250000X0.650000X-0.325000X0.650000X0.325000X-0.650000X0.325000X-0.650000X-0.325000X0*%
%ADD31RoundRect,0.250000X0.550000X-1.500000X0.550000X1.500000X-0.550000X1.500000X-0.550000X-1.500000X0*%
%ADD32RoundRect,0.150000X0.150000X0.200000X-0.150000X0.200000X-0.150000X-0.200000X0.150000X-0.200000X0*%
%ADD33RoundRect,0.150000X0.150000X-0.512500X0.150000X0.512500X-0.150000X0.512500X-0.150000X-0.512500X0*%
%ADD34RoundRect,0.150000X-0.825000X-0.150000X0.825000X-0.150000X0.825000X0.150000X-0.825000X0.150000X0*%
%ADD35RoundRect,0.282500X-0.282500X-0.282500X0.282500X-0.282500X0.282500X0.282500X-0.282500X0.282500X0*%
%ADD36RoundRect,0.050000X-0.387500X-0.050000X0.387500X-0.050000X0.387500X0.050000X-0.387500X0.050000X0*%
%ADD37RoundRect,0.050000X-0.050000X-0.387500X0.050000X-0.387500X0.050000X0.387500X-0.050000X0.387500X0*%
%ADD38FreePoly0,0.000000*%
%ADD39RoundRect,0.250001X-0.374999X0.354999X-0.374999X-0.354999X0.374999X-0.354999X0.374999X0.354999X0*%
%ADD40RoundRect,0.100000X-0.100000X0.687500X-0.100000X-0.687500X0.100000X-0.687500X0.100000X0.687500X0*%
G04 APERTURE END LIST*
D10*
X114465000Y-75158000D03*
X114465000Y-74498000D03*
X114465000Y-73838000D03*
X114465000Y-73178000D03*
D11*
X112472500Y-74168000D03*
D12*
X123378000Y-79634500D03*
X122428000Y-79634500D03*
X121478000Y-79634500D03*
X121478000Y-81909500D03*
X122428000Y-81909500D03*
X123378000Y-81909500D03*
D13*
X109855000Y-70293000D03*
X109855000Y-71693000D03*
D14*
X87260000Y-77790000D03*
X87260000Y-79690000D03*
X89535000Y-78740000D03*
D15*
X81788000Y-71021000D03*
X81788000Y-71981000D03*
X125857000Y-82959000D03*
X125857000Y-83919000D03*
D16*
X118364000Y-79899000D03*
X118364000Y-81899000D03*
D17*
X86231000Y-81153000D03*
X87251000Y-81153000D03*
X121918000Y-69342000D03*
X122938000Y-69342000D03*
D18*
X126494000Y-57150000D03*
X125474000Y-57150000D03*
X126494000Y-49530000D03*
X125474000Y-49530000D03*
D10*
X98971000Y-75158000D03*
X98971000Y-74498000D03*
X98971000Y-73838000D03*
X98971000Y-73178000D03*
D11*
X96978500Y-74168000D03*
D19*
X102489000Y-71854000D03*
X102489000Y-70894000D03*
D20*
X116134000Y-65278000D03*
X117094000Y-65278000D03*
D18*
X117096000Y-66421000D03*
X116076000Y-66421000D03*
D21*
X123766500Y-55290000D03*
X123766500Y-54640000D03*
X123766500Y-53990000D03*
X123766500Y-53340000D03*
X123766500Y-52690000D03*
X123766500Y-52040000D03*
X123766500Y-51390000D03*
X118041500Y-51390000D03*
X118041500Y-52040000D03*
X118041500Y-52690000D03*
X118041500Y-53340000D03*
X118041500Y-53990000D03*
X118041500Y-54640000D03*
X118041500Y-55290000D03*
D17*
X95756000Y-71755000D03*
X96776000Y-71755000D03*
D22*
X91313000Y-78865000D03*
X91313000Y-79885000D03*
D23*
X86868000Y-72138000D03*
X86868000Y-71118000D03*
D18*
X121795000Y-74295000D03*
X120775000Y-74295000D03*
D17*
X124077000Y-69342000D03*
X125097000Y-69342000D03*
D23*
X83058000Y-69979000D03*
X83058000Y-68959000D03*
D24*
X126337000Y-70993000D03*
X125377000Y-70993000D03*
D22*
X86868000Y-75436000D03*
X86868000Y-76456000D03*
D18*
X126494000Y-58420000D03*
X125474000Y-58420000D03*
D25*
X90472500Y-75499000D03*
X90472500Y-73599000D03*
X88597500Y-74549000D03*
D23*
X84201000Y-69979000D03*
X84201000Y-68959000D03*
D26*
X112460000Y-62992000D03*
X111060000Y-62992000D03*
D16*
X123825000Y-84471000D03*
X123825000Y-86471000D03*
D17*
X117600000Y-69342000D03*
X118620000Y-69342000D03*
D27*
X83742000Y-55245000D03*
X86692000Y-55245000D03*
D28*
X98171000Y-63549000D03*
X98171000Y-66499000D03*
D19*
X81915000Y-65377000D03*
X81915000Y-64417000D03*
D22*
X125857000Y-75690000D03*
X125857000Y-76710000D03*
D29*
X82870000Y-80058500D03*
X84770000Y-80058500D03*
X83820000Y-78183500D03*
D20*
X95786000Y-70612000D03*
X96746000Y-70612000D03*
D25*
X121587500Y-86294000D03*
X121587500Y-84394000D03*
X119712500Y-85344000D03*
D18*
X126494000Y-53340000D03*
X125474000Y-53340000D03*
D22*
X103759000Y-57275000D03*
X103759000Y-58295000D03*
D13*
X99060000Y-70293000D03*
X99060000Y-71693000D03*
D22*
X102743000Y-57275000D03*
X102743000Y-58295000D03*
D26*
X117667000Y-86360000D03*
X116267000Y-86360000D03*
D22*
X86868000Y-73275000D03*
X86868000Y-74295000D03*
D18*
X126494000Y-55880000D03*
X125474000Y-55880000D03*
D23*
X97790000Y-71884000D03*
X97790000Y-70864000D03*
D30*
X108077000Y-66372000D03*
X108077000Y-63422000D03*
D18*
X126494000Y-52070000D03*
X125474000Y-52070000D03*
D24*
X126464000Y-50800000D03*
X125504000Y-50800000D03*
D26*
X87314000Y-83058000D03*
X85914000Y-83058000D03*
D18*
X126494000Y-54610000D03*
X125474000Y-54610000D03*
X120271000Y-77470000D03*
X119251000Y-77470000D03*
D19*
X116459000Y-55217000D03*
X116459000Y-54257000D03*
D23*
X81788000Y-74297000D03*
X81788000Y-73277000D03*
D31*
X92710000Y-68740000D03*
X92710000Y-63340000D03*
D32*
X119188000Y-76073000D03*
X120588000Y-76073000D03*
D33*
X83251000Y-73908500D03*
X84201000Y-73908500D03*
X85151000Y-73908500D03*
X85151000Y-71633500D03*
X84201000Y-71633500D03*
X83251000Y-71633500D03*
D19*
X120650000Y-72489000D03*
X120650000Y-71529000D03*
D34*
X119064000Y-64008000D03*
X119064000Y-65278000D03*
X119064000Y-66548000D03*
X119064000Y-67818000D03*
X124014000Y-67818000D03*
X124014000Y-66548000D03*
X124014000Y-65278000D03*
X124014000Y-64008000D03*
D10*
X109766000Y-75158000D03*
X109766000Y-74498000D03*
X109766000Y-73838000D03*
X109766000Y-73178000D03*
D11*
X107773500Y-74168000D03*
D10*
X103670000Y-75158000D03*
X103670000Y-74498000D03*
X103670000Y-73838000D03*
X103670000Y-73178000D03*
D11*
X101677500Y-74168000D03*
D13*
X125857000Y-80072000D03*
X125857000Y-81472000D03*
D14*
X123576500Y-72329000D03*
X123576500Y-73279000D03*
X123576500Y-74229000D03*
X125851500Y-74229000D03*
X125851500Y-72329000D03*
D18*
X112016000Y-61722000D03*
X110996000Y-61722000D03*
D19*
X100711000Y-60325000D03*
X100711000Y-59365000D03*
D17*
X106551000Y-71755000D03*
X107571000Y-71755000D03*
D27*
X100252000Y-66548000D03*
X103202000Y-66548000D03*
D17*
X111250000Y-71755000D03*
X112270000Y-71755000D03*
D22*
X83185000Y-75436000D03*
X83185000Y-76456000D03*
D17*
X119759000Y-69342000D03*
X120779000Y-69342000D03*
D35*
X103490000Y-61199000D03*
X103490000Y-62499000D03*
X104790000Y-61199000D03*
X104790000Y-62499000D03*
D36*
X102202500Y-60649000D03*
X102202500Y-61049000D03*
X102202500Y-61449000D03*
X102202500Y-61849000D03*
X102202500Y-62249000D03*
X102202500Y-62649000D03*
X102202500Y-63049000D03*
D37*
X102940000Y-63786500D03*
X103340000Y-63786500D03*
X103740000Y-63786500D03*
X104140000Y-63786500D03*
X104540000Y-63786500D03*
X104940000Y-63786500D03*
X105340000Y-63786500D03*
D36*
X106077500Y-63049000D03*
X106077500Y-62649000D03*
X106077500Y-62249000D03*
X106077500Y-61849000D03*
X106077500Y-61449000D03*
X106077500Y-61049000D03*
X106077500Y-60649000D03*
D37*
X105340000Y-59911500D03*
X104940000Y-59911500D03*
X104540000Y-59911500D03*
X104140000Y-59911500D03*
X103740000Y-59911500D03*
X103340000Y-59911500D03*
X102940000Y-59911500D03*
D26*
X117667000Y-84455000D03*
X116267000Y-84455000D03*
D28*
X96266000Y-58469000D03*
X96266000Y-61419000D03*
D23*
X85344000Y-69979000D03*
X85344000Y-68959000D03*
D13*
X103759000Y-70293000D03*
X103759000Y-71693000D03*
D20*
X106581000Y-70612000D03*
X107541000Y-70612000D03*
D10*
X93892500Y-77877000D03*
X93892500Y-78537000D03*
X93892500Y-79197000D03*
X93892500Y-79857000D03*
D38*
X95885000Y-78867000D03*
D22*
X91313000Y-76833000D03*
X91313000Y-77853000D03*
X84455000Y-75436000D03*
X84455000Y-76456000D03*
D15*
X109855000Y-61750000D03*
X109855000Y-62710000D03*
D23*
X105537000Y-58295000D03*
X105537000Y-57275000D03*
D13*
X114554000Y-70293000D03*
X114554000Y-71693000D03*
D30*
X98679000Y-61419000D03*
X98679000Y-58469000D03*
D20*
X123853000Y-62484000D03*
X124813000Y-62484000D03*
D31*
X92710000Y-56548000D03*
X92710000Y-51148000D03*
D19*
X113284000Y-71854000D03*
X113284000Y-70894000D03*
X120015000Y-79601000D03*
X120015000Y-78641000D03*
D17*
X100455000Y-71755000D03*
X101475000Y-71755000D03*
D39*
X86500000Y-61734000D03*
X84950000Y-61734000D03*
X86500000Y-63234000D03*
X84950000Y-63234000D03*
D40*
X87675000Y-59621500D03*
X87025000Y-59621500D03*
X86375000Y-59621500D03*
X85725000Y-59621500D03*
X85075000Y-59621500D03*
X84425000Y-59621500D03*
X83775000Y-59621500D03*
X83775000Y-65346500D03*
X84425000Y-65346500D03*
X85075000Y-65346500D03*
X85725000Y-65346500D03*
X86375000Y-65346500D03*
X87025000Y-65346500D03*
X87675000Y-65346500D03*
D17*
X118235000Y-62484000D03*
X119255000Y-62484000D03*
D18*
X126494000Y-59690000D03*
X125474000Y-59690000D03*
D22*
X121920000Y-71499000D03*
X121920000Y-72519000D03*
D13*
X125857000Y-85406000D03*
X125857000Y-86806000D03*
D23*
X108585000Y-71884000D03*
X108585000Y-70864000D03*
X81788000Y-76456000D03*
X81788000Y-75436000D03*
M02*
