M48
INCH,TZ
T1C0.0118
T2C0.0118
T3C0.0157
T4C0.0394
T5C0.0472
%
G90
G05
T1
X32250Y-27300
X32500Y-22400
X32500Y-22900
X32500Y-26300
X32500Y-26800
X33000Y-22400
X33000Y-22900
X33000Y-26300
X33000Y-26800
X33058Y-29425
X33100Y-32100
X33150Y-27800
X33500Y-22400
X33500Y-22900
X33500Y-26300
X33500Y-26800
X33550Y-21100
X33600Y-30100
X34000Y-27150
X34370Y-27670
X34500Y-28850
X34600Y-30150
X35450Y-24400
X35450Y-24900
X35450Y-25400
X35450Y-26550
X35450Y-27050
X35450Y-27550
X35950Y-22050
X35950Y-24400
X35950Y-24900
X35950Y-25400
X35950Y-26550
X35950Y-27050
X35950Y-27550
X36800Y-30300
X37150Y-30300
X37500Y-28800
X37500Y-29150
X37500Y-29500
X37500Y-30300
X37750Y-28600
X37850Y-30300
X38100Y-28600
X38200Y-30300
X38850Y-27200
X39150Y-26750
X39367Y-24467
X39700Y-21400
X39700Y-21800
X39700Y-22200
X39700Y-22600
X39700Y-23000
X39700Y-25600
X40100Y-21400
X40100Y-21800
X40100Y-22200
X40100Y-22600
X40100Y-23000
X40250Y-27050
X40522Y-25600
X41050Y-30300
X41200Y-22550
X41200Y-23000
X41300Y-30700
X41500Y-30300
X41550Y-22000
X41650Y-27050
X41750Y-28800
X41750Y-29150
X41750Y-29500
X41750Y-30700
X41950Y-27450
X41950Y-30300
X42000Y-28600
X42350Y-28600
X42500Y-22750
X42500Y-23350
X42500Y-24300
X42550Y-27050
X43250Y-25050
X43800Y-25150
X43950Y-30900
X44350Y-30500
X44450Y-30900
X44750Y-30100
X44850Y-30500
X44900Y-20950
X44900Y-26600
X45250Y-30100
X45550Y-21000
X45750Y-25300
X46176Y-26624
X46250Y-24600
X46500Y-22000
X46500Y-23799
X46600Y-28950
X46950Y-21000
X46950Y-21350
X47150Y-32250
X47500Y-26700
X47550Y-27650
X47550Y-28950
X47650Y-30800
X48200Y-28850
X48250Y-21000
X48250Y-21350
X48362Y-31788
X48400Y-27650
X48550Y-32800
X49050Y-23799
X49150Y-32100
X49550Y-28800
X49850Y-32650
X50100Y-22000
T2
X32726Y-24088
X32726Y-24600
X32726Y-25112
X33238Y-24088
X33238Y-24600
X33238Y-25112
X33750Y-24088
X33750Y-24600
X33750Y-25112
X34262Y-24088
X34262Y-24600
X34262Y-25112
X34774Y-24088
X34774Y-24600
X34774Y-25112
X40610Y-24350
X41000Y-23960
X41000Y-24350
X41000Y-24740
X41390Y-24350
T3
X45350Y-33250
X45350Y-34000
T4
X31500Y-20100
X31500Y-21100
X31500Y-22100
X31500Y-23100
X31500Y-24100
X31500Y-25100
X31500Y-26100
X31500Y-27100
X31500Y-29100
X31500Y-30100
X31500Y-31100
X31500Y-32100
X31500Y-33100
X31500Y-34100
X50500Y-16502
X50500Y-17502
X50500Y-18502
X50500Y-19502
X50500Y-20502
X50500Y-21502
X50500Y-22502
X50500Y-23502
X50500Y-24502
X50500Y-25502
X50500Y-27100
X50500Y-28100
X50500Y-29100
X50500Y-30100
X50500Y-31100
X50500Y-32100
X50500Y-33100
X50500Y-34100
T5
X35950Y-32695
X37950Y-32695
X40800Y-32700
X42178Y-32700
M30
